<?xml version="1.0" encoding="UTF-8"?>
<!-- Generator: Adobe Illustrator 22.1.0, SVG Export Plug-In . SVG Version: 6.00 Build 0)  -->
<svg version="1.1" id="Calque_1" xmlns="http://www.w3.org/2000/svg" xmlns:xlink="http://www.w3.org/1999/xlink" x="0px" y="0px" viewBox="0 0 72.3 72.3" style="enable-background:new 0 0 72.3 72.3;" xml:space="preserve">
<style type="text/css">
	.st0{fill:#256285;}
	.st1{opacity:0.5;fill:#256285;enable-background:new    ;}
</style>
<g>
	<path class="st0" d="M28.6,0h15.1v5.5H28.6V0z"/>
	<path class="st0" d="M66.8,28.6h5.5v15.1h-5.5V28.6z"/>
	<path class="st0" d="M66.8,0h-8.9c-0.4,0-0.8,0.3-0.8,0.8v4c0,0.4,0.3,0.8,0.8,0.8H66c0.4,0,0.8,0.3,0.8,0.8v8.1   c0,0.4,0.3,0.8,0.8,0.8h4c0.4,0,0.8-0.3,0.8-0.8V0.8c0-0.4-0.3-0.8-0.8-0.8H66.8z"/>
	<path class="st0" d="M28.6,66.8h15.1v5.5H28.6V66.8z"/>
	<path class="st0" d="M66.8,57.9V66c0,0.4-0.3,0.8-0.8,0.8h-8.1c-0.4,0-0.8,0.3-0.8,0.8v4c0,0.4,0.3,0.8,0.8,0.8h13.6   c0.4,0,0.8-0.3,0.8-0.8V57.9c0-0.4-0.3-0.8-0.8-0.8h-4C67.1,57.1,66.8,57.5,66.8,57.9z"/>
	<path class="st0" d="M0,28.6h5.5v15.1H0V28.6z"/>
	<path class="st0" d="M14.3,0H0.8C0.4,0,0,0.4,0,0.8v13.5c0,0.5,0.4,0.8,0.8,0.8h3.8c0.5,0,0.8-0.4,0.8-0.8v-8   c0-0.5,0.4-0.8,0.8-0.8h8c0.5,0,0.8-0.4,0.8-0.8V0.8C15.1,0.4,14.8,0,14.3,0z"/>
	<path class="st0" d="M5.5,66.1v-8.2c0-0.4-0.3-0.7-0.7-0.7h-4c-0.4,0-0.7,0.3-0.7,0.7v13.6c0,0.4,0.3,0.7,0.7,0.7h13.6   c0.4,0,0.7-0.3,0.7-0.7v-4c0-0.4-0.3-0.7-0.7-0.7H6.2C5.8,66.8,5.5,66.5,5.5,66.1z"/>
	<path class="st1" d="M44.5,34.4V19.6c0-0.4-0.3-0.8-0.8-0.8H28.5c-0.4,0-0.8,0.3-0.8,0.8v14.8c0,0.4-0.3,0.8-0.8,0.8h-5.5   c-0.6,0-1,0.7-0.6,1.2l14.7,18.4c0.3,0.4,0.9,0.4,1.2,0l14.7-18.4c0.4-0.5,0-1.2-0.6-1.2h-5.5C44.9,35.2,44.5,34.9,44.5,34.4z"/>
</g>
</svg>